<svg width="22" height="21" viewBox="0 0 23 23" fill="none" xmlns="http://www.w3.org/2000/svg">
<path d="M10.2469 22.5039C15.9061 22.5039 20.4938 18.0331 20.4938 12.5182C20.4938 7.00322 15.9061 2.53247 10.2469 2.53247C4.5877 2.53247 0 7.00322 0 12.5182C0 18.0331 4.5877 22.5039 10.2469 22.5039Z" fill="white"/>
<path d="M10.247 22.0046C15.6233 22.0046 19.9816 17.7574 19.9816 12.5182C19.9816 7.27895 15.6233 3.03174 10.247 3.03174C4.87077 3.03174 0.512451 7.27895 0.512451 12.5182C0.512451 17.7574 4.87077 22.0046 10.247 22.0046Z" stroke="#00ADAA"/>
<path d="M4.09888 9.82201L9.83715 17.5889L21.8732 1.76654" stroke="#00ADAA" stroke-width="2" stroke-linecap="round"/>
</svg>
